<svg width="20" height="20" xmlns="http://www.w3.org/2000/svg"><path d="M.625 2.083h2.917a.625.625 0 0 1 0 1.25H.625a.625.625 0 0 1 0-1.25zm10.833 0h7.917a.625.625 0 0 1 0 1.25h-7.917a.625.625 0 0 1 0-1.25zm-5.625 2.5a1.667 1.667 0 1 0 0-3.333 1.667 1.667 0 1 0 0 3.333zm0 1.25a2.917 2.917 0 1 1 0-5.833 2.917 2.917 0 1 1 0 5.833zM.625 15.417h2.917a.625.625 0 0 1 0 1.25H.625a.625.625 0 0 1 0-1.25zm10.833 0h7.917a.625.625 0 0 1 0 1.25h-7.917a.625.625 0 0 1 0-1.25zm-5.625 2.5a1.667 1.667 0 1 0 0-3.334 1.667 1.667 0 1 0 0 3.334zm0 1.25a2.917 2.917 0 1 1 0-5.834 2.917 2.917 0 1 1 0 5.834zM.625 8.75h8.75a.625.625 0 0 1 0 1.25H.625a.625.625 0 0 1 0-1.25zm15.833 0h2.917a.625.625 0 0 1 0 1.25h-2.917a.625.625 0 0 1 0-1.25zm-2.291 2.5a1.667 1.667 0 1 0 0-3.333 1.667 1.667 0 1 0 0 3.333zm0 1.25a2.917 2.917 0 1 1 0-5.833 2.917 2.917 0 1 1 0 5.833z"/></svg>