<svg width="20" height="21" xmlns="http://www.w3.org/2000/svg"><path d="M5.67 10.03l4.229 2.483 3.984-2.34L9.654 7.69 5.67 10.03zM4.426 9.3l9.465-5.557-3.122-1.835a1.948 1.948 0 0 0-1.98 0L3.326 5.12a2.03 2.03 0 0 0-.993 1.753V8.07L4.427 9.3zm-2.094.23v3.767c0 .724.379 1.391.992 1.753l1.127.661 4.204-2.468-6.323-3.714zm8.563-2.57l4.525 2.658 1.807 1.06V6.873a2.03 2.03 0 0 0-.992-1.752l-1.102-.648-4.238 2.489zm6.332 5.177l-2.102-1.235-9.433 5.539 3.098 1.82c.61.36 1.368.36 1.979 0l5.465-3.212a2.03 2.03 0 0 0 .993-1.753v-1.159zm-14.55-8.11L8.16.806c1-.588 2.24-.588 3.241 0l5.482 3.22A3.297 3.297 0 0 1 18.5 6.872v6.437a3.297 3.297 0 0 1-1.617 2.847L11.4 19.375c-1 .589-2.24.589-3.241 0l-5.482-3.218A3.297 3.297 0 0 1 1.06 13.31V6.873c0-1.174.616-2.26 1.617-2.847z"/></svg>