<svg class="icon" viewBox="0 0 1024 1024" xmlns="http://www.w3.org/2000/svg" width="16" height="16"><defs><style/></defs><path d="M979.2 158.848a32 32 0 0 0-38.4-23.936l-166.848 38.656a32 32 0 0 0-15.808 53.44l36.416 37.632L600 438.208l-101.056-95.68a32 32 0 0 0-45.12 1.152L237.056 570.944A64 64 0 1 0 288 633.6a62.784 62.784 0 0 0-3.456-19.712l193.6-202.944 99.2 93.952a32 32 0 0 0 43.264.64L839.04 310.72l41.536 43.008a32 32 0 0 0 53.888-13.952l44.416-165.44a31.872 31.872 0 0 0 .32-15.488zM928 450.432a32 32 0 0 0-32 32V736a32 32 0 0 1-32 32H160a32 32 0 0 1-32-32V160a32 32 0 0 1 32-32h530.624a32 32 0 1 0 0-64H160a96 96 0 0 0-96 96v576a96 96 0 0 0 96 96h704a96 96 0 0 0 96-96V482.432a32 32 0 0 0-32-32zM912 896H112a32 32 0 1 0 0 64h800a32 32 0 1 0 0-64z"/></svg>