<?xml version="1.0" standalone="no"?><!DOCTYPE svg PUBLIC "-//W3C//DTD SVG 1.1//EN" "http://www.w3.org/Graphics/SVG/1.1/DTD/svg11.dtd"><svg t="1646648081029" class="icon" viewBox="0 0 1024 1024" version="1.1" xmlns="http://www.w3.org/2000/svg" p-id="2607" xmlns:xlink="http://www.w3.org/1999/xlink" width="200" height="200"><defs><style type="text/css"></style></defs><path d="M512 687.552c126.72 0 229.376-90.368 229.376-201.856V380.352c0-4.864-4.48-8.768-9.92-8.768h-49.92c-5.504 0-9.92 3.904-9.92 8.768v103.808a133.76 133.76 0 0 1-45.696 99.84c-61.696 55.36-162.752 56.192-225.664 1.92-30.592-26.432-47.872-62.592-47.872-100.288V380.288c0-4.8-4.48-8.768-9.92-8.768h-49.92c-5.504 0-9.92 3.968-9.92 8.768v105.344c0 111.552 102.656 201.92 229.376 201.92z m429.76-474.88l-118.592-126.72a42.24 42.24 0 0 0-30.848-12.8H231.68a42.24 42.24 0 0 0-30.784 12.8l-118.592 126.72a32.64 32.64 0 0 0-9.088 22.272v698.368c0 9.664 8.96 17.536 19.968 17.536h837.76c11.072 0 19.968-7.872 19.968-17.536V234.88a32.64 32.64 0 0 0-9.088-22.336zM245.76 134.528h532.48l82.176 87.744H163.584L245.76 134.592z m635.264 754.816H142.976V283.776h738.048v605.632z" fill="#FFFFFF" p-id="2608"></path></svg>