<svg class="icon" viewBox="0 0 1024 1024" xmlns="http://www.w3.org/2000/svg" width="16" height="16"><defs><style/></defs><path d="M128 128v768h768V128H128zm0-64h768a64 64 0 0 1 64 64v768a64 64 0 0 1-64 64H128a64 64 0 0 1-64-64V128a64 64 0 0 1 64-64zM96 292.544h832v64H96v-64zM256 512v192h128V512H256zm0-64h128a64 64 0 0 1 64 64v192a64 64 0 0 1-64 64H256a64 64 0 0 1-64-64V512a64 64 0 0 1 64-64zm320 32h192c21.312 0 32 10.688 32 32 0 21.312-10.688 32-32 32H576c-21.312 0-32-10.688-32-32 0-21.312 10.688-32 32-32zm0 128h192c21.312 0 32 10.688 32 32 0 21.312-10.688 32-32 32H576c-21.312 0-32-10.688-32-32 0-21.312 10.688-32 32-32zm0 128h192c21.312 0 32 10.688 32 32 0 21.312-10.688 32-32 32H576c-21.312 0-32-10.688-32-32 0-21.312 10.688-32 32-32z"/></svg>