<svg class="icon" viewBox="0 0 1024 1024" xmlns="http://www.w3.org/2000/svg" width="16" height="16"><defs><style/></defs><path d="M769.536 257.984c.576-4.736 1.152-9.408 1.152-14.72C770.688 127.232 572.672 64 385.92 64 199.168 64 1.28 126.72 1.28 243.2H0v601.6h1.216c0 115.904 197.952 179.2 384.704 179.2 40.96 0 81.856-2.944 121.6-8.896 27.84-4.096 37.888-39.04 17.152-57.92l-1.216-1.216a46.4 46.4 0 0 0-36.736-11.84c-30.848 4.16-64.64 6.528-100.8 6.528-189.696 0-310.656-62.08-310.656-105.28v-92.288c19.584 11.84 41.536 22.464 66.432 31.36 69.952 25.408 158.272 39.04 243.648 39.04H398.4a34.24 34.24 0 0 0 33.216-39.04v-.64a40.64 40.64 0 0 0-39.744-34.24h-6.528c-29.632 0-58.112-1.792-84.16-4.16-66.432-7.104-120.96-21.888-159.488-39.68-42.688-19.456-66.432-41.92-66.432-60.864v-90.496c19.008 11.84 40.32 21.888 64 30.72 70.592 26.048 159.552 39.68 246.08 39.68 14.848 0 29.056-.64 43.904-1.216a46.272 46.272 0 0 0 37.888-23.04c7.168-11.84 14.848-23.04 23.168-34.304 7.04-8.96-.64-22.528-11.904-20.736-28.416 3.584-59.84 5.312-92.48 5.312-33.152 0-64-1.728-92.48-5.312-64-7.68-116.16-22.464-153.536-39.68-41.472-19.456-64.64-41.344-64.64-60.288v-93.44c19.008 11.84 41.536 22.464 65.856 31.36 70.528 25.408 158.848 39.04 244.224 39.04 85.952 0 174.272-13.632 244.224-39.04 24.32-8.896 46.272-18.944 65.28-30.72v94.016l.576 6.464v.64a37.12 37.12 0 0 0 73.536-7.04c0-2.432 0-4.224-.64-6.016V257.984h1.216zm-138.752 46.144c-38.528 17.792-91.904 32.576-158.272 39.68a787.392 787.392 0 0 1-173.12 0c-65.792-7.104-119.744-21.888-158.272-39.68-42.688-19.52-65.856-41.984-65.856-60.928 0-42.56 120.96-105.28 310.656-105.28 189.76 0 310.656 62.08 310.656 105.28 0 1.792 0 4.16-.576 5.952-4.16 17.728-27.264 37.824-65.216 55.04zm180.8 690.88c-2.368 0-4.736 0-7.68-.64l-170.176-14.72a86.272 86.272 0 0 1-69.952-49.088l-72.32-155.008a83.456 83.456 0 0 1 7.68-84.544l98.432-139.584c17.216-24.896 47.424-38.464 77.696-36.096l170.112 14.72c30.272 3.008 56.96 21.376 69.952 49.152l72.32 154.944c13.056 27.84 10.112 60.352-7.68 84.608l-98.432 139.584c-16 23.04-42.048 36.672-69.952 36.672zm-144-406.4a12.416 12.416 0 0 0-9.536 4.8l-97.792 140.16c-2.368 3.584-3.008 7.68-1.216 11.264L631.36 899.2a12.352 12.352 0 0 0 9.472 6.528l170.176 14.72c4.16.64 7.68-1.152 10.048-4.672l98.432-139.584c2.368-3.584 2.944-7.68 1.216-11.264l-72.32-155.008a12.352 12.352 0 0 0-9.536-6.464l-170.112-14.784h-1.216zm72.32 292.864A115.2 115.2 0 0 1 624.256 766.08 115.2 115.2 0 0 1 739.84 650.752c64 0 115.648 51.456 115.648 115.328 0 63.936-52.16 115.392-115.648 115.392zm0-156.8a41.216 41.216 0 0 0-41.536 41.408c0 23.04 18.368 41.408 41.472 41.408a41.216 41.216 0 0 0 41.536-41.408 41.6 41.6 0 0 0-41.536-41.408z"/></svg>