<?xml version="1.0" standalone="no"?><!DOCTYPE svg PUBLIC "-//W3C//DTD SVG 1.1//EN" "http://www.w3.org/Graphics/SVG/1.1/DTD/svg11.dtd"><svg t="1645969302537" class="icon" viewBox="0 0 1025 1024" version="1.1" xmlns="http://www.w3.org/2000/svg" p-id="1441" xmlns:xlink="http://www.w3.org/1999/xlink" width="200.1953125" height="200"><defs><style type="text/css"></style></defs><path d="M512.89856 449.990861c126.520819 0 229.48965-100.977722 229.48965-224.99543S639.419379 0 512.89856 0C386.377741 0 283.40891 100.977722 283.40891 224.995431c0 124.302153 102.968832 224.995431 229.48965 224.99543z m-26.567096 328.248707l211.285216-274.943848a804.749775 804.749775 0 0 0-183.864787-22.072876c-5.063108 0-134.940369-9.44355-269.539406 47.217751 0 0-17.066657 1.47911-50.631083 48.924418-51.199972 76.344846-130.161705 187.790118-153.429248 224.99543-16.213324 24.348431-57.343968 73.272848-30.492428 124.757264 29.411539 51.25686 54.328859 89.941283 64.113743 96.59728H200.464956c-2.50311-87.893285 86.812396-232.106538 285.809619-245.475419z m499.8255 25.599985c-38.85509-61.21241-125.667486-185.742119-132.664816-196.778557-9.215995-14.620436-37.489757-70.71285-90.965282-85.845286-5.575108-1.535999-13.084437-3.811553-21.788433-6.371552l-202.638109 263.167854c193.422115 10.751994 289.109173 148.87814 289.109172 245.759864l115.882603 0.227555s12.287993 1.023999 72.760848-99.441722c22.641765-52.79286-1.706666-75.832847-29.695983-120.661267z m-473.542848 39.480867c-133.518148 0-241.777643 79.189289-241.777644 180.394567h483.327732c0.284444-100.920833-108.088829-180.337678-241.550088-180.337678z" fill="#8696AE" p-id="1442"></path></svg>