<svg width="20" height="20" xmlns="http://www.w3.org/2000/svg"><path d="M15.619 5.584H14.39V3.291a.84.84 0 0 0-.84-.84H6.463a.84.84 0 0 0-.841.84v2.293h-1.23V3.291A2.07 2.07 0 0 1 6.46 1.222h7.09c1.14 0 2.069.93 2.069 2.07v2.292zm-3.34 3.277h6.597v1.23h-6.597V8.86zm-11.144 0h6.648v1.23H1.134V8.86h.001zm16.836 9.465H2.041a1.81 1.81 0 0 1-1.808-1.808V6.184c0-.998.81-1.808 1.808-1.808h15.93c.998 0 1.807.81 1.807 1.808V16.52c0 .997-.81 1.806-1.807 1.807v-.001zM2.041 5.606a.578.578 0 0 0-.578.577v10.335c0 .32.259.578.578.578h15.93a.578.578 0 0 0 .577-.578V6.184a.578.578 0 0 0-.577-.578H2.041zm8.646 7.714H9.324a1.6 1.6 0 0 1-1.6-1.6V8.97c0-.884.717-1.601 1.601-1.601h1.362a1.6 1.6 0 0 1 1.6 1.601v2.75a1.6 1.6 0 0 1-1.6 1.6v-.001zM9.324 8.598a.372.372 0 0 0-.37.37v2.753c0 .204.166.37.37.37h1.363a.37.37 0 0 0 .37-.37v-2.75a.37.37 0 0 0-.37-.371H9.324v-.002z"/></svg>