<svg width="20" height="21" xmlns="http://www.w3.org/2000/svg"><path d="M9.56 18.591c-4.72 0-8.56-3.749-8.56-8.357 0-1.254.295-2.51.855-3.639l-.023-.024.076-.08h0a8.436 8.436 0 0 1 3.223-3.41l.094-.055.426.687-.093.056h0a7.656 7.656 0 0 0-2.048 1.76c.22-.066.431-.099.634-.099.678 0 1.22.37 1.527 1.04 1.017 2.218.637 4.13-1.015 5.112-.485.288-.635.518-.864 1.111-.224.577-.461.94-1.031 1.144h0a7.566 7.566 0 0 0 1.89 2.233 2.31 2.31 0 0 1 .482-1.173 1.724 1.724 0 0 1 1.371-.635c.446 0 .935.14 1.453.415 1.21.644 2.03.779 2.503.779h0c.706 0 1.111-.295 1.111-.808 0-1.675 1.206-2.56 3.487-2.56.457 0 .964.034 1.507.103.055.007.182.052.164.32-.012.19-.098.473-.284.473h-.007l-.014-.001a11.053 11.053 0 0 0-1.351-.092c-1.778 0-2.68.59-2.68 1.757 0 .997-.718 1.593-1.921 1.593-.847 0-1.853-.297-2.909-.859-.4-.212-.753-.32-1.05-.32a.916.916 0 0 0-.74.34c-.253.305-.372.811-.298 1.246h0a7.827 7.827 0 0 0 4.077 1.14c4.116 0 7.51-3.132 7.735-7.132.007-.125.146-.197.38-.197.067 0 .292.008.392.112.035.035.053.08.05.126-.248 4.426-4.003 7.894-8.548 7.894h0zm-6.989-11.6a7.347 7.347 0 0 0-.748 3.243h0a7.336 7.336 0 0 0 .58 2.873c.324-.096.44-.236.619-.699.277-.715.517-1.103 1.205-1.513 1.265-.752 1.524-2.284.692-4.098-.174-.38-.444-.572-.805-.572-.419 0-.952.265-1.543.766h0zm3.862-5c0-.546.455-.991 1.015-.991h9.96c.56 0 1.015.444 1.015.99v7.072c0 .547-.455.991-1.015.991H8.444l-2.011.78V1.99h0zm1.015-.188h0a.19.19 0 0 0-.192.188v7.658l1.03-.399h9.122a.19.19 0 0 0 .193-.188V1.991h0a.19.19 0 0 0-.193-.188h-9.96 0zm6.994 5.67c-.356 0-.643-.09-.853-.267a.9.9 0 0 1-.323-.72c0-.284.104-.52.311-.705.203-.181.536-.297 1.017-.353l.493-.072a2.81 2.81 0 0 0 .363-.078 1.876 1.876 0 0 0-.014-.236.374.374 0 0 0-.068-.156.394.394 0 0 0-.183-.128 1.085 1.085 0 0 0-.386-.055c-.206 0-.368.036-.482.107-.106.066-.182.198-.224.392l-.022.096-.732-.093.02-.11c.062-.341.225-.602.485-.775.254-.169.602-.255 1.035-.255.4 0 .69.059.885.18.2.123.325.276.372.456.042.162.063.37.063.62V7.4h-.714v-.264a1.811 1.811 0 0 1-1.043.336h0zm1.008-1.565a6.414 6.414 0 0 1-.893.176c-.453.06-.506.251-.506.39 0 .109.04.196.124.266.087.073.22.11.394.11a.989.989 0 0 0 .624-.205c.17-.13.257-.364.257-.694v-.043h0zm-3.32 1.493l-.508-1.283H9.97l-.477 1.283h-.84l1.743-4.432h.765l1.852 4.432h-.884zm-.765-1.94a59.384 59.384 0 0 1-.584-1.552l-.57 1.552h1.154z" stroke="#989A9A" stroke-width=".2"/></svg>