<svg width="20" height="20" xmlns="http://www.w3.org/2000/svg"><path d="M10.145.513C5.079.513.447 4.566.447 9.053c0 2.605 1.448 4.92 3.619 6.368l.29 3.908 3.907-2.171c.58.145 1.158.145 1.737.145 5.066 0 9.553-3.908 9.553-8.395 0-4.342-4.342-8.395-9.408-8.395zM10 16c-.724 0-1.303-.145-2.026-.29l-2.75 1.737v-2.75c-2.171-1.302-3.474-3.329-3.474-5.79C1.75 5 5.513 1.817 10 1.817c4.632 0 8.25 3.184 8.25 7.092C18.25 12.816 14.632 16 10 16zm4.776-7.96c-.579 0-1.158.578-1.158 1.157 0 .58.58 1.158 1.158 1.158.58 0 1.158-.579 1.158-1.158s-.579-1.158-1.158-1.158zm-4.631 0c-.58 0-1.158.578-1.158 1.157 0 .58.579 1.158 1.158 1.158s1.158-.579 1.158-1.158-.58-1.158-1.158-1.158zm-4.632 0c-.579 0-1.158.578-1.158 1.157 0 .58.58 1.158 1.158 1.158.58 0 1.158-.579 1.158-1.158S6.237 8.04 5.513 8.04z"/></svg>