<svg width="20" height="21" xmlns="http://www.w3.org/2000/svg"><path d="M18.524 3.8H.857a.66.66 0 0 1-.667-.667.66.66 0 0 1 .667-.666h17.667a.66.66 0 0 1 .666.666.66.66 0 0 1-.666.667zm0 5.267H.857A.66.66 0 0 1 .19 8.4a.66.66 0 0 1 .667-.667h17.667a.66.66 0 0 1 .666.667.66.66 0 0 1-.666.667zM7.59 14.773H.857a.66.66 0 0 1-.667-.666.66.66 0 0 1 .667-.667H7.59a.66.66 0 0 1 .667.667.66.66 0 0 1-.667.666zm11.64-1.133l-1.04-.347c-.026-.053-.04-.106-.066-.16l.493-.973a.322.322 0 0 0-.067-.387l-.96-.96a.326.326 0 0 0-.386-.066l-.974.493c-.053-.027-.106-.04-.16-.067l-.346-1.04a.333.333 0 0 0-.32-.226h-1.347a.333.333 0 0 0-.32.226l-.347 1.04c-.053.027-.106.04-.16.067l-.973-.493a.322.322 0 0 0-.387.066l-.96.96a.326.326 0 0 0-.066.387l.493.973c-.027.054-.04.107-.067.16l-1.04.347a.333.333 0 0 0-.226.32v1.347c0 .146.093.28.226.32l1.04.346c.027.054.04.107.067.16l-.493.974a.322.322 0 0 0 .066.386l.96.96a.329.329 0 0 0 .387.067l.973-.493c.054.026.107.04.16.066l.347 1.04c.04.134.173.227.32.227h1.347c.146 0 .28-.093.32-.227l.346-1.04c.054-.026.107-.04.16-.066l.974.493c.133.067.28.04.386-.067l.96-.96a.326.326 0 0 0 .067-.386l-.493-.974c.026-.053.04-.106.066-.16l1.04-.346a.333.333 0 0 0 .227-.32V13.96c.013-.147-.08-.267-.227-.32zm-.973 1.373l-.84.28a.264.264 0 0 0-.187.187c-.04.107-.08.227-.146.333a.31.31 0 0 0 0 .267l.386.787-.533.533-.787-.387a.31.31 0 0 0-.266 0 3.624 3.624 0 0 1-.334.147.264.264 0 0 0-.186.187l-.28.84h-.747l-.28-.84a.264.264 0 0 0-.187-.187c-.106-.04-.226-.08-.333-.147a.311.311 0 0 0-.267 0l-.786.387-.534-.533.4-.787a.31.31 0 0 0 0-.267 3.624 3.624 0 0 1-.146-.333.264.264 0 0 0-.187-.187l-.84-.28v-.746l.84-.28a.264.264 0 0 0 .187-.187c.04-.107.08-.227.146-.333a.311.311 0 0 0 0-.267l-.4-.787.534-.533.786.4c.08.04.187.04.267 0 .107-.053.227-.107.333-.147a.264.264 0 0 0 .187-.186l.28-.84h.747l.28.84c.026.093.093.16.186.186.107.04.227.08.334.147.08.04.173.04.266 0l.787-.387.533.534-.4.786a.31.31 0 0 0 0 .267c.054.107.107.227.147.333.027.094.093.16.187.187l.84.28.013.733h0zm-3.52-2.066c-.933 0-1.693.76-1.693 1.693s.76 1.693 1.693 1.693 1.693-.76 1.693-1.693-.76-1.693-1.693-1.693zm0 2.466a.774.774 0 1 1 .001-1.547.774.774 0 0 1-.001 1.547z" stroke="#989999" stroke-width=".1"/></svg>