<?xml version="1.0" standalone="no"?><!DOCTYPE svg PUBLIC "-//W3C//DTD SVG 1.1//EN" "http://www.w3.org/Graphics/SVG/1.1/DTD/svg11.dtd"><svg t="1646648086285" class="icon" viewBox="0 0 1024 1024" version="1.1" xmlns="http://www.w3.org/2000/svg" p-id="2737" xmlns:xlink="http://www.w3.org/1999/xlink" width="200" height="200"><defs><style type="text/css"></style></defs><path d="M1000.96 363.328l-200.512-248.512a111.808 111.808 0 0 0-85.696-41.664H310.144a108.8 108.8 0 0 0-85.696 41.728L24 363.328c-34.56 41.728-30.976 103.424 5.504 143.296l406.4 428.032 5.504 5.44c20.032 18.112 47.36 29.056 74.688 29.056h3.648c29.184-1.792 56.512-12.8 76.544-34.496l397.312-426.24c38.272-41.664 40.064-103.36 7.296-145.088z m-60.224 94.336l-397.248 426.24a36.032 36.032 0 0 1-25.6 10.88 43.648 43.648 0 0 1-25.472-9.088L84.16 455.872c-12.8-12.8-12.8-32.64-1.856-47.168L280.96 160.192a38.144 38.144 0 0 1 29.184-14.528h404.608c10.88 0 21.824 5.504 29.184 14.528l200.448 248.512a40.896 40.896 0 0 1-3.712 48.96z m-235.072-19.968L516.096 639.04 321.088 434.048a37.504 37.504 0 0 0-52.864-1.792c-14.592 12.672-14.592 36.224-1.792 50.816l196.8 206.72 3.648 3.648c29.184 27.136 74.752 25.408 103.872-3.648l189.568-204.928c12.8-14.528 12.8-38.144-1.792-50.816a39.424 39.424 0 0 0-52.928 3.648z" fill="#FFFFFF" p-id="2738"></path></svg>