<svg width="20" height="20" xmlns="http://www.w3.org/2000/svg"><path d="M3.35 10.258h1.796v1.895H3.35v-1.895zm9.358-2.539a.45.45 0 0 0-.452-.449H6.342a.45.45 0 1 0 0 .899h5.914c.25 0 .452-.2.452-.45zM9.09 11.225c0-.25-.203-.44-.453-.44H6.342c-.25 0-.453.19-.453.44s.203.44.453.44h2.295c.251 0 .453-.19.453-.44z"/><path d="M8.768 17.68H2.379c-.587 0-1.08-.459-1.08-1.046V5.254c0-.588.493-1.07 1.08-1.07h12.778c.587 0 1.083.482 1.083 1.07v4.99a.53.53 0 0 0 .527.534.529.529 0 0 0 .528-.533V5.253a2.149 2.149 0 0 0-2.138-2.143H2.38c-1.176 0-2.154.968-2.154 2.143v11.38c0 1.177.978 2.121 2.154 2.121h6.389a.537.537 0 0 0 0-1.074z"/><path d="M6.342 14.301c-.25 0-.453.19-.453.44s.203.44.453.44H7.49c.25 0 .452-.19.452-.44s-.203-.44-.452-.44H6.342zM3.35 6.743h1.796v1.914H3.35V6.743zm0 7.031h1.796v1.914H3.35v-1.914zm13.182 1.059c-.159-.098-.154-.446-.18-.546-.029-.112.024-.381.2-.6.181-.224.487-.397.49-.432.031-.348-.075-.74-.461-1.007-.224-.155-.54.192-.9.216-.246.016-.407-.204-.458-.24-.73-.53-.241-1.186-.31-1.302-.06-.102-.542-.473-1.011-.35-.439.114-.304.658-.636.893-.106.074-.413.086-.592.065-.621-.07-.71-.86-1.14-.744-.418.113-.764.447-.789.72-.025.281.304.46.29.754-.008.154-.185.335-.253.461-.055.104-.305.26-.591.269-.233.008-.495-.13-.653-.09-.114.028-.322.252-.348.466-.032.258-.145.495.034.757.191.282.42.13.697.388.176.164.142.363.155.449a.995.995 0 0 1-.2.713c-.124.152-.394.221-.44.367-.144.461.156.865.359 1.02.277.211.707-.177 1.056-.197.193-.01.343.151.44.269.128.153.257.343.257.595 0 .195-.114.436-.045.604.12.291.578.432.91.432.43 0 .435-.58.674-.856.173-.2.396-.155.469-.158.141-.008.4.014.616.195.114.097.171.356.285.432.225.153.439.151.546.094.237-.127.463-.204.656-.506.131-.203-.229-.5-.232-.844-.002-.309.276-.557.33-.636.055-.08.361-.2.604-.192.273.009.515.092.56.07.169-.086.194-.17.28-.387.08-.197.087-.322.087-.543-.001-.338-.461-.418-.756-.6zm-3.307 1.725a1.876 1.876 0 1 1 0-3.752 1.876 1.876 0 0 1 0 3.752zM17.65.336H1.927c-.644 0-.863.655-.676 1.046.167.35.73.38.986.029H17.65c.588 0 1.051.45 1.051 1.037v4.991c0 .294.233.533.527.533a.529.529 0 0 0 .528-.533V2.448c0-1.176-.93-2.112-2.106-2.112z"/></svg>