<svg width="20" height="21" xmlns="http://www.w3.org/2000/svg"><path d="M13.386 6.306H6.614c-.34 0-.614-.292-.614-.653 0-.36.275-.653.614-.653h6.772c.34 0 .614.292.614.653 0 .363-.273.653-.614.653zm0 2.774H6.614c-.34 0-.614-.292-.614-.653 0-.361.275-.653.614-.653h6.772c.34 0 .614.292.614.653 0 .36-.273.653-.614.653zm0 2.776H6.614c-.34 0-.614-.293-.614-.653 0-.361.275-.654.614-.654h6.772c.34 0 .614.293.614.654 0 .36-.273.653-.614.653z"/><path d="M16.789 18.998a1.6 1.6 0 0 1-.78-.217l-5.442-3.038c-.294-.164-.87-.162-1.166.003L3.993 18.78c-.465.262-.963.29-1.362.076C2.229 18.64 2 18.222 2 17.711V2.687C2 1.756 2.803 1 3.787 1h12.426C17.2 1 18 1.758 18 2.687V17.71c0 .513-.23.93-.628 1.143a1.193 1.193 0 0 1-.583.145zM9.984 14.3c.461 0 .922.104 1.291.31l5.333 2.973V2.687c0-.202-.18-.37-.392-.37H3.789c-.213 0-.392.168-.392.37v14.895l5.291-2.969c.37-.208.835-.312 1.296-.312z"/></svg>