<svg class="icon" viewBox="0 0 1024 1024" xmlns="http://www.w3.org/2000/svg" width="16" height="16"><defs><style/></defs><path d="M540.608 618.688h311.36c19.072 0 31.808-12.8 31.808-31.872V172.352c0-19.072-12.8-31.872-31.808-31.872H165.76c-19.072 0-31.808 12.8-31.808 31.872V586.88c0 19.072 12.736 31.872 31.808 31.872h171.52v152.96l152.512-152.96h50.88zm-273.28 63.744h-133.44A70.656 70.656 0 0 1 64 612.288V134.144C64 95.872 95.744 64 133.888 64h756.224C928.256 64 960 95.872 960 134.144v484.48c0 38.272-31.744 70.144-69.888 70.144H515.2L330.88 886.464c-12.672 12.736-31.744 12.736-44.48 0-6.4-6.4-12.672-12.8-12.672-25.536v-178.56h-6.4zM515.2 427.392c-25.472 0-50.88-25.472-50.88-51.008 0-25.472 25.408-51.008 50.88-51.008 25.408 0 50.816 25.536 50.816 51.008 0 25.536-25.408 51.008-50.816 51.008zm-222.464 0c-25.408 0-50.816-25.472-50.816-51.008 0-25.472 25.408-51.008 50.816-51.008 25.472 0 50.88 25.536 50.88 51.008 0 25.536-25.408 51.008-50.88 51.008zm438.528 0c-25.472 0-50.88-25.472-50.88-51.008 0-25.472 25.408-51.008 50.88-51.008 25.408 0 50.816 25.536 50.816 51.008 0 25.536-19.072 51.008-50.816 51.008z"/></svg>