<?xml version="1.0" standalone="no"?><!DOCTYPE svg PUBLIC "-//W3C//DTD SVG 1.1//EN" "http://www.w3.org/Graphics/SVG/1.1/DTD/svg11.dtd"><svg t="1645972519631" class="icon" viewBox="0 0 1024 1024" version="1.1" xmlns="http://www.w3.org/2000/svg" p-id="1701" xmlns:xlink="http://www.w3.org/1999/xlink" width="200" height="200"><defs><style type="text/css"></style></defs><path d="M610.986667 375.466667c-58.026667 0-95.573333 51.2-95.573334 133.12s37.546667 136.533333 95.573334 136.533333 98.986667-54.613333 98.986666-136.533333-40.96-133.12-98.986666-133.12z" fill="#8696AE" p-id="1702"></path><path d="M890.88 0H133.12C58.026667 0 0 58.026667 0 133.12v757.76C0 965.973333 58.026667 1024 133.12 1024h757.76c71.68 0 133.12-58.026667 133.12-133.12V133.12C1024 58.026667 965.973333 0 890.88 0zM382.293333 689.493333H324.266667L204.8 481.28 170.666667 406.186667h-3.413334c3.413333 37.546667 6.826667 78.506667 6.826667 116.053333v167.253333h-51.2V334.506667h58.026667l119.466666 208.213333 37.546667 75.093333H341.333333c-3.413333-37.546667-6.826667-78.506667-6.826666-119.466666V334.506667h54.613333v354.986666h-6.826667z m228.693334 6.826667c-92.16 0-153.6-71.68-153.6-184.32 0-116.053333 64.853333-184.32 153.6-184.32 88.746667 0 153.6 68.266667 153.6 184.32 3.413333 112.64-61.44 184.32-153.6 184.32z m256 0c-20.48 0-37.546667-17.066667-37.546667-37.546667 0-20.48 17.066667-40.96 37.546667-40.96 20.48 0 37.546667 17.066667 37.546666 40.96s-17.066667 37.546667-37.546666 37.546667z" fill="#8696AE" p-id="1703"></path></svg>