<svg width="20" height="20" xmlns="http://www.w3.org/2000/svg"><path d="M2.51 19.563a2.16 2.16 0 0 1-2.107-2.09V6.196a2.16 2.16 0 0 1 2.107-2.09h2.11V2.634A2.166 2.166 0 0 1 6.73.428h9.845a2.166 2.166 0 0 1 2.11 2.207v14.714a2.167 2.167 0 0 1-2.11 2.208l-14.065.006zM1.806 6.32v11.035a.724.724 0 0 0 .704.737h14.068a.724.724 0 0 0 .704-.737V2.64a.723.723 0 0 0-.704-.736H6.733a.723.723 0 0 0-.704.736v12.507a.722.722 0 0 1-.703.736.722.722 0 0 1-.703-.736V5.583h-2.11a.724.724 0 0 0-.707.739V6.32zm6.695 7.485a.764.764 0 0 1-.761-.762.763.763 0 0 1 .761-.76h6.091c.42 0 .76.34.76.76s-.34.76-.76.762h-6.09zm0-6.092a.763.763 0 0 1-.761-.76.765.765 0 0 1 .761-.763h6.091a.762.762 0 0 1 0 1.523h-6.09z"/></svg>