<?xml version="1.0" standalone="no"?><!DOCTYPE svg PUBLIC "-//W3C//DTD SVG 1.1//EN" "http://www.w3.org/Graphics/SVG/1.1/DTD/svg11.dtd"><svg t="1646647982551" class="icon" viewBox="0 0 1024 1024" version="1.1" xmlns="http://www.w3.org/2000/svg" p-id="2347" xmlns:xlink="http://www.w3.org/1999/xlink" width="200" height="200"><defs><style type="text/css"></style></defs><path d="M718.144 51.2c17.92 0 32.576 15.104 32.576 33.536v53.696h88.128c44.608 0 80.896 37.376 80.896 83.328v696.96c0 45.952-36.288 83.328-80.896 83.328H196.16c-44.672 0-80.96-37.376-80.96-83.328V221.76c0-45.952 36.288-83.328 80.96-83.328H284.16v-53.696c0-18.432 14.72-33.536 32.64-33.536s32.512 15.104 32.512 33.536v53.696h336.192v-53.696c0-18.432 14.72-33.536 32.576-33.536z m-433.92 154.304H208.192c-15.36 0-27.84 12.8-27.84 28.672v672.128c0 15.744 12.352 28.672 27.84 28.672h618.56c15.36 0 27.904-12.8 27.712-28.672V234.176a28.288 28.288 0 0 0-27.84-28.672h-76.096v64.896a33.152 33.152 0 0 1-32.576 33.6 33.152 33.152 0 0 1-32.512-33.6V205.504H349.44v64.896a33.152 33.152 0 0 1-32.64 33.6 33.152 33.152 0 0 1-32.576-33.6V205.504z m269.888 320c17.92 0 32.64 15.104 32.64 33.6a33.152 33.152 0 0 1-32.64 33.536H286.08a33.152 33.152 0 0 1-32.512-33.536c0-18.496 14.656-33.536 32.512-33.536h268.16z m97.728-143.232c17.92 0 32.64 15.104 32.64 33.6a33.152 33.152 0 0 1-32.64 33.536H286.08a33.152 33.152 0 0 1-32.512-33.536c0-18.496 14.656-33.6 32.512-33.6h365.824z" fill="#FFFFFF" p-id="2348"></path></svg>