<?xml version="1.0" standalone="no"?><!DOCTYPE svg PUBLIC "-//W3C//DTD SVG 1.1//EN" "http://www.w3.org/Graphics/SVG/1.1/DTD/svg11.dtd"><svg t="1645969515243" class="icon" viewBox="0 0 1024 1024" version="1.1" xmlns="http://www.w3.org/2000/svg" p-id="1571" xmlns:xlink="http://www.w3.org/1999/xlink" width="200" height="200"><defs><style type="text/css"></style></defs><path d="M724.366222 754.915556c-37.888 37.376-182.044444 0-318.577778-134.542223-136.533333-134.542222-174.421333-276.536889-136.533333-313.912889 30.378667-29.923556 75.889778-89.713778 136.533333-14.961777 60.700444 74.752 30.378667 97.166222 0 127.089777-22.755556 22.414222 22.755556 82.204444 75.889778 134.542223 53.077333 52.337778 113.777778 97.166222 136.533334 74.695111 30.321778-29.866667 53.077333-59.733333 128.910222 0 60.700444 52.337778 7.623111 89.713778-22.755556 127.089778M876.088889 0H155.477333c-22.755556 0-53.077333 7.452444-68.266666 29.923556C72.078222 44.828444 56.888889 67.242667 56.888889 97.166222v141.994667c15.189333 0 30.321778 7.509333 45.511111 22.471111a47.047111 47.047111 0 0 1 0 44.828444c-7.566222 14.961778-22.755556 22.414222-45.511111 22.414223v119.580444c15.189333 0 30.321778 7.509333 45.511111 22.414222a47.047111 47.047111 0 0 1 0 44.885334c-7.566222 14.904889-22.755556 22.414222-45.511111 22.414222v119.580444c15.189333 0 30.321778 7.452444 45.511111 22.414223a47.047111 47.047111 0 0 1 0 44.885333c-7.566222 14.904889-22.755556 22.414222-45.511111 22.414222v186.823111C56.888889 986.624 102.4 1024 147.911111 1024h720.611556c22.755556 0 53.077333-7.452444 68.266666-29.923556 15.132444-14.904889 30.321778-44.828444 30.321778-67.242666V89.713778C967.111111 44.828444 921.6 0 876.088889 0" fill="#8696AE" p-id="1572"></path></svg>