<svg width="20" height="20" xmlns="http://www.w3.org/2000/svg"><path d="M15.78 1.175H1.66c-.71 0-1.283.573-1.283 1.282v11.54c0 .707.576 1.282 1.283 1.282h1.609l.002.002.002-.002H15.78c.71 0 1.285-.573 1.285-1.282V2.455a1.285 1.285 0 0 0-1.285-1.28zm0 12.18a.643.643 0 0 1-.643.642H4.552l3.867-3.874 2.6 2.585 2.483-2.591 2.277 2.268v.97zm0-2.882l-2.181-2.25-2.626 2.622-2.58-2.621-5.764 5.77h-.327a.643.643 0 0 1-.642-.642V3.098c0-.355.288-.643.642-.643h12.835c.354 0 .642.288.642.643v7.375z"/><path d="M4.867 4.11a1.924 1.924 0 0 0-1.925 1.922 1.924 1.924 0 0 0 3.85 0A1.924 1.924 0 0 0 4.867 4.11zm0 2.563a.642.642 0 1 1 0-1.285.642.642 0 0 1 0 1.285zm-1.925 9.212c0 .355.288.64.643.64h14.12a.642.642 0 0 0 .642-.64V4.345a.64.64 0 0 0-.643-.64h-.642V2.424h1.285c.709 0 1.282.574 1.282 1.283v12.82c0 .706-.575 1.282-1.282 1.282H2.942a1.283 1.283 0 0 1-1.282-1.283v-1.282h1.282v.642z"/></svg>