<svg width="20" height="20" xmlns="http://www.w3.org/2000/svg"><path d="M14.75 17.166v-.148c0-.23-.182-.461-.297-.692a7.68 7.68 0 0 0-4.944-4.186 4.515 4.515 0 1 0-4.005 0A7.68 7.68 0 0 0 .56 16.36l-.082.198v.099c0 .131-.132.28-.181.428v.264c0 .197-.083.395-.132.576a.626.626 0 0 0 .445.594h.099a.676.676 0 0 0 .51-.478l.149-.56v-.182a6.394 6.394 0 0 1 12.08 0v.33c0 .181.148.379.214.56.155.23.443.331.708.247h.214a.643.643 0 0 0 .165-.494c.083-.264.083-.461.083-.626l-.083-.149zM4.317 8.103A3.197 3.197 0 1 1 7.53 11.3a3.197 3.197 0 0 1-3.213-3.18v-.017z"/><path d="M19.89 13.459v-.264c0-.214-.164-.412-.263-.626a6.97 6.97 0 0 0-4.45-3.807 4.087 4.087 0 1 0-5.652-5.24 9.36 9.36 0 0 1 1.022.774 2.9 2.9 0 1 1 2.9 3.691c.226.532.403 1.084.528 1.648a5.817 5.817 0 0 1 4.746 3.84v.297c0 .164.132.33.197.51.146.203.405.29.643.215h.132a.577.577 0 0 0 .148-.445.705.705 0 0 0 .05-.593z"/></svg>