<svg class="icon" viewBox="0 0 1024 1024" xmlns="http://www.w3.org/2000/svg" width="32" height="32"><defs><style/></defs><path d="M905.728 287.936v565.632c-.64 4.16-1.28 8.32-2.048 12.416a122.048 122.048 0 0 1-120.96 100.288H250.88A121.664 121.664 0 0 1 128.128 845.44a491442.56 491442.56 0 0 1 0-660.672c0-54.784 37.696-102.784 90.88-116.608 7.104-1.856 14.464-2.816 21.76-4.16H680.96c4.288.64 8.576 1.216 12.8 1.984a121.472 121.472 0 0 1 99.2 106.24c.32 2.496 1.024 3.584 3.776 3.84 51.584 5.44 94.08 43.136 105.664 93.696 1.408 6.016 2.24 12.16 3.328 18.176zm-177.92-114.752a56.96 56.96 0 0 0-56.192-44.352H250.368a56.96 56.96 0 0 0-57.6 57.6V843.84c0 32.768 25.152 57.792 57.856 57.792h532.352c32.768 0 57.984-24.96 57.984-57.664V297.6a56.96 56.96 0 0 0-58.432-57.664H342.272A32.256 32.256 0 0 1 312 198.848c4.288-14.592 16.768-23.552 33.024-23.552h382.912c-.128-1.088-.128-1.664-.256-2.176z"/><path d="M482.176 511.872c1.28-4.16 0-6.848-2.752-9.6C441.6 464.64 403.84 426.88 366.272 389.248a29.76 29.76 0 0 1 39.552-44.48c1.408 1.152 2.688 2.496 3.968 3.776l99.008 99.072c1.216 1.216 2.176 2.56 3.584 4.224l4.032-3.712 105.6-102.592c14.08-13.632 34.56-12.352 45.696 2.624 9.024 12.16 7.68 28.544-3.52 39.424-27.2 26.56-54.464 52.992-81.792 79.488-12.288 11.904-24.512 23.872-36.864 35.712-2.56 2.432-4.096 4.864-2.816 9.088H667.2c12.096 0 21.44 5.44 26.88 16.256a28.288 28.288 0 0 1-2.368 30.976 29.056 29.056 0 0 1-24.96 12.352H542.528v52.224h4.864c40.96 0 81.92-.064 122.88.064a29.568 29.568 0 0 1 26.688 42.112 29.12 29.12 0 0 1-28.352 17.472H542.272v83.52a29.824 29.824 0 1 1-59.648-1.28v-82.24H358.08a29.696 29.696 0 0 1-30.464-26.24 29.44 29.44 0 0 1 29.44-33.28c40-.128 80 0 119.936 0h5.376V571.52h-4.928c-40.768 0-81.6.128-122.432 0a29.696 29.696 0 0 1-27.2-42.112 28.864 28.864 0 0 1 27.904-17.472H482.24z"/></svg>