<svg class="icon" viewBox="0 0 1024 1024" xmlns="http://www.w3.org/2000/svg" width="16" height="16"><defs><style/></defs><path d="M288 320h448a32 32 0 1 0 0-64H288a32 32 0 0 0 0 64zm0 224h448a32 32 0 1 0 0-64H288a32 32 0 0 0 0 64zm256 160H288a32 32 0 1 0 0 64h256a32 32 0 1 0 0-64zm352-571.072C896 77.248 851.584 32 796.928 32h-569.92C172.416 32 128 77.312 128 132.928v758.144C128 946.752 172.48 992 227.008 992H662.08c1.536 0 2.88-.64 4.416-.896a31.424 31.424 0 0 0 25.92-6.528l192-160a31.424 31.424 0 0 0 10.88-27.2c.128-1.152.704-2.176.704-3.392v-661.12zM192 891.072V132.928C192 112.576 207.68 96 227.008 96h569.92C816.32 96 832 112.576 832 132.928V736h-96a96 96 0 0 0-96 96v96H227.008C207.68 928 192 911.424 192 891.072zM814.016 800L704 891.648V832a32 32 0 0 1 32-32h78.016z"/></svg>