<svg class="icon" viewBox="0 0 1024 1024" xmlns="http://www.w3.org/2000/svg" width="20" height="20"><defs><style/></defs><path d="M753.414 664.566A101.387 101.387 0 0 0 652.078 765.8a101.438 101.438 0 0 0 101.336 101.285 101.438 101.438 0 0 0 101.233-101.336c-1.74-54.916-46.318-101.182-101.233-101.182zm0 150.98a49.798 49.798 0 1 1 49.746-49.747c-1.74 27.433-24.054 49.798-49.746 49.798zm265.98-102.922c-3.43-20.626-17.145-32.602-32.602-32.602h-1.74a57.116 57.116 0 0 1-56.604-56.655c0-8.599 3.429-18.937 5.118-22.315 8.598-17.145 1.74-39.459-15.456-51.486l-66.892-37.77a50.207 50.207 0 0 0-17.145-3.43c-12.027 0-24.055 5.118-32.602 13.716-8.598 10.339-30.912 27.433-46.317 27.433-15.456 0-37.77-18.834-46.369-27.433a46.83 46.83 0 0 0-32.55-13.716c-5.118 0-12.027 1.74-17.196 3.43h-1.74l-68.58 37.719-1.741 1.74c-15.456 10.338-22.314 32.601-13.716 49.797 0 1.69 5.118 11.925 5.118 22.315 0 30.86-25.743 56.655-56.656 56.655h-3.429c-15.456 0-29.172 13.717-32.55 32.602 0 3.429-5.17 30.861-5.17 53.175 0 22.263 5.119 49.798 5.119 53.227 3.48 20.574 17.196 32.55 32.601 32.55h1.74c30.913 0 56.656 25.743 56.656 56.656 0 8.598-3.43 18.885-5.118 22.314-8.598 17.145-1.74 39.46 15.405 51.487l65.203 36.03c5.118 1.74 10.287 3.43 17.145 3.43 12.027 0 24.054-5.119 32.652-13.768 8.547-8.547 30.862-27.432 46.318-27.432 15.405 0 37.72 18.936 46.266 29.172a46.983 46.983 0 0 0 32.653 13.767c5.118 0 12.027-1.74 18.834-3.429l66.943-36.081 1.74-1.74c15.456-10.287 22.314-32.602 13.716-49.747 0-1.74-5.118-12.027-5.118-22.365 0-30.862 25.692-56.656 56.656-56.656h3.377c15.508 0 29.275-13.665 32.653-32.55 0 0 5.118-29.224 5.118-53.227 3.429-23.952-1.74-51.435-1.74-54.813zM959.36 800.14a102.36 102.36 0 0 0-89.257 102.922c0 12.027 3.43 24.054 5.118 30.912l-44.577 25.744a101.233 101.233 0 0 0-18.834-15.457c-20.677-17.145-41.251-24.054-58.345-24.054-18.885 0-37.77 6.91-56.707 22.365-8.547 5.118-13.716 11.976-18.885 15.405l-44.526-24.003c1.689-8.598 5.118-18.885 5.118-30.912 0-51.436-39.46-96.064-89.257-102.973a187.112 187.112 0 0 1-3.43-32.55c0-10.288 1.69-24.055 3.43-32.653a102.36 102.36 0 0 0 89.257-102.973c0-11.976-3.43-24.004-5.118-30.862l46.266-25.794c3.429 3.48 10.287 10.338 18.936 15.507 18.834 13.716 37.669 20.574 56.605 20.574 17.145 0 36.03-6.858 56.656-20.574 8.598-5.118 13.716-10.338 18.834-15.507l44.628 25.794c-1.689 8.547-5.118 18.886-5.118 30.862 0 51.486 39.409 96.166 89.206 102.973 1.74 8.598 3.48 22.365 3.48 32.652-1.944 10.748-3.07 21.65-3.48 32.55zM68.632 949.38v-56.656c0-193.97 149.29-355.289 341.52-372.434 12.028-1.689 24.055-1.689 36.082-1.689h5.118c42.889-3.429 106.402-13.716 138.953-42.888l17.196-12.027c63.514-49.798 101.233-123.548 101.233-204.207 0-144.173-116.69-259.173-262.55-259.173-144.174 0-262.552 116.69-262.552 259.173 0 80.66 35.98 154.409 101.182 204.207l17.196 12.027-18.936 6.807C111.52 549.515 1.74 710.884 1.74 892.776v90.946c0 18.885 15.456 32.652 34.29 32.652h492.603a434.31 434.31 0 0 1-41.2-66.943h-418.8zm181.892-691.59c0-106.402 87.517-192.281 193.919-192.281 106.453 0 193.97 85.879 193.97 192.281 0 106.454-87.517 192.23-193.97 192.23-106.351 1.69-193.92-85.827-193.92-192.23z"/></svg>