<svg width="20" height="20" xmlns="http://www.w3.org/2000/svg"><path d="M17.06 2.23H2.941A2.569 2.569 0 0 0 .375 4.8v8.405a2.566 2.566 0 0 0 2.567 2.564h2.936s.001 2.505-.003 2.75c-.003.13.043.21.144.21.091 0 .229-.063.42-.21.405-.316 3.395-2.75 3.395-2.75l1.55.215v-1.375l-1.55-.215c-.317 0-.623.109-.868.31l-1.713 1.392v-.327a1.374 1.374 0 0 0-1.375-1.374H2.942c-.657 0-1.19-.533-1.192-1.19V4.799c0-.658.535-1.193 1.192-1.193H17.06c.658 0 1.191.536 1.191 1.193v5.656h1.375V4.799a2.569 2.569 0 0 0-2.566-2.57zm-1.904 6.874a1.03 1.03 0 0 0-2.06-.002 1.03 1.03 0 0 0 2.06.002zm-6.187 0a1.031 1.031 0 1 0 2.062 0 1.031 1.031 0 1 0-2.062 0zm-4.125 0a1.031 1.031 0 1 0 2.062 0 1.031 1.031 0 1 0-2.062 0zm14.584 5.697a.644.644 0 0 0-.176-.117l-2.634-2.636a.655.655 0 1 0-.925.926l1.633 1.632h-3.888a.688.688 0 0 0 0 1.375h3.867l-1.651 1.651a.668.668 0 0 0 .945.945l2.737-2.738a.674.674 0 0 0 .289-.544l-.003-.011a.66.66 0 0 0-.194-.483z"/></svg>