<svg class="icon" viewBox="0 0 1024 1024" xmlns="http://www.w3.org/2000/svg" width="16" height="16"><defs><style/></defs><path d="M1012.8 381.888c-5.952-31.424-25.28-51.776-49.152-51.776H958.4A125.12 125.12 0 0 1 833.152 205.44c0-22.272 10.88-47.296 10.88-47.488a65.28 65.28 0 0 0-22.08-79.104l-1.536-1.088L693.504 7.552l-1.6-.64A72.896 72.896 0 0 0 613.376 22.4c-14.016 14.272-62.08 55.104-99.008 55.104-37.248 0-85.568-41.6-99.584-56.192A72.896 72.896 0 0 0 336.32 5.184l-1.664.704L203.2 77.76l-1.536 1.088c-25.088 17.28-34.624 51.264-22.272 79.04.064.192 10.88 25.088 10.88 47.552A125.12 125.12 0 0 1 65.024 330.112H59.84c-23.872 0-43.2 20.352-49.152 51.84C10.24 384.128 0 438.848 0 481.6c0 42.816 10.24 97.472 10.688 99.84 6.016 31.36 25.28 51.712 49.152 51.712h5.184c69.12 0 125.312 55.936 125.312 124.672 0 22.4-10.88 47.36-10.88 47.552a65.28 65.28 0 0 0 22.08 79.104l1.472 1.024 124.544 69.312 1.536.704a71.68 71.68 0 0 0 78.848-16.448c17.728-19.136 65.728-58.624 101.12-58.624 38.4 0 87.68 44.288 101.824 59.776 12.736 13.952 32.32 22.272 52.48 22.272 9.28 0 18.176-1.792 26.24-5.248l1.664-.704 129.088-71.04 1.536-1.024c25.024-17.344 34.56-51.328 22.272-78.976-.128-.256-11.008-25.472-11.008-47.68 0-68.736 56.256-124.672 125.312-124.672h5.12c23.936 0 43.264-20.288 49.216-51.776.128-.512 10.688-55.936 10.688-99.776 0-42.944-10.24-97.472-10.688-99.776zm-656.192 507.2L247.68 828.416c4.8-12.224 14.528-40.896 14.528-70.528A196.48 196.48 0 0 0 80.32 562.24c-2.56-14.528-8.384-51.712-8.384-80.576 0-28.8 5.888-65.984 8.32-80.512A196.48 196.48 0 0 0 262.272 205.44c0-29.504-9.728-58.048-14.528-70.4l115.968-63.36c4.16 4.288 20.928 20.8 43.968 37.12 37.76 26.816 73.6 40.32 106.752 40.32 32.832 0 68.48-13.248 105.92-39.488 22.976-16 39.616-32.256 43.776-36.48l111.744 61.824c-4.8 12.288-14.528 40.96-14.528 70.464a196.48 196.48 0 0 0 181.888 195.712c2.56 14.528 8.384 51.84 8.384 80.512 0 28.864-5.888 66.048-8.32 80.576a196.48 196.48 0 0 0-181.952 195.648c0 29.568 9.728 58.176 14.528 70.4L662.72 890.56a350.72 350.72 0 0 0-44.16-38.784c-38.4-28.416-75.264-42.88-109.44-42.88-33.792 0-70.272 14.144-108.544 42.048-22.4 16.384-39.04 33.024-43.904 38.144zm334.208-408.064A181.056 181.056 0 0 0 509.44 300.608a181.056 181.056 0 0 0-181.12 180.416A181.056 181.056 0 0 0 509.568 661.44 181.056 181.056 0 0 0 690.88 481.024zm-181.312-108.8c60.288 0 109.376 48.832 109.376 108.8 0 60.032-49.088 108.8-109.376 108.8a109.184 109.184 0 0 1-109.312-108.8c0-60.032 49.024-108.8 109.312-108.8z"/></svg>