<svg class="icon" viewBox="0 0 1024 1024" xmlns="http://www.w3.org/2000/svg" width="16" height="16"><defs><style/></defs><path d="M880.32 232.448L560.192 45.12a95.68 95.68 0 0 0-96.64 0L143.68 232.448A96.64 96.64 0 0 0 96 315.904v397.632c0 34.816 18.624 66.944 48.704 84.032l320 181.952c29.312 16.64 65.28 16.64 94.528 0l320-181.952C909.44 780.352 928 748.288 928 713.536V315.904a96.64 96.64 0 0 0-47.68-83.456zM864 713.6a32.192 32.192 0 0 1-16.256 28.032l-320 181.952a31.744 31.744 0 0 1-31.488 0l-320-181.952A32.192 32.192 0 0 1 160 713.6V315.904c0-11.456 6.08-22.08 15.872-27.776l319.872-187.392a31.808 31.808 0 0 1 32.192 0l320.128 187.392c9.92 5.76 15.936 16.32 15.936 27.776v397.632zM512 320a192 192 0 1 0 0 384 192 192 0 0 0 0-384zm0 320a128 128 0 1 1 0-256 128 128 0 0 1 0 256z"/></svg>