<svg class="icon" viewBox="0 0 1024 1024" xmlns="http://www.w3.org/2000/svg" width="32" height="32"><defs><style/></defs><path d="M853.312 85.312a64 64 0 0 1 64 64v725.376a64 64 0 0 1-64 64H256a64 64 0 0 1-64-64v-128h-32a32 32 0 0 1 0-64h32v-128h-32a32 32 0 1 1 0-64h32v-128h-32a32 32 0 1 1 0-64h32V149.312a64 64 0 0 1 64-64h597.312zm-21.312 64H277.312a21.312 21.312 0 0 0-21.12 18.88l-.192 2.496v682.624c0 10.88 8.128 19.968 18.816 21.184l2.56.192H832a21.312 21.312 0 0 0 21.184-18.88l.128-2.496V170.688A21.312 21.312 0 0 0 832 149.312zm-137.344 158.72a32 32 0 0 1 0 45.248l-72.832 72.832h71.488a32 32 0 1 1 0 64H585.28v64h108.032a32 32 0 1 1 0 64H585.28V736a32 32 0 1 1-64 0V618.112H416a32 32 0 0 1 0-64h105.28v-64H416a32 32 0 0 1 0-64h72.192L415.36 353.28a32 32 0 0 1 45.248-45.248l94.4 94.4 94.4-94.4a32 32 0 0 1 45.248 0z"/></svg>