<svg class="icon" viewBox="0 0 1024 1024" xmlns="http://www.w3.org/2000/svg" width="16" height="16"><defs><style/></defs><path d="M662.656 671.744a32 32 0 1 0-45.248 45.248l112 112a32 32 0 1 0 45.248-45.248l-112-112zm50.24-100.16a247.36 247.36 0 0 0-334.08-269.504 32 32 0 0 0-11.008 52.416l97.792 97.856a32 32 0 0 1 0 45.248l-31.36 31.296a32 32 0 0 1-45.248 0l-98.048-98.112a32 32 0 0 0-52.352 10.816A247.36 247.36 0 0 0 506.56 777.088L652.416 922.88a145.6 145.6 0 1 0 205.888-205.888L712.96 571.648zm100.096 306.048a81.6 81.6 0 0 1-115.392 0L527.232 707.328l-17.28 3.968a183.36 183.36 0 0 1-224-194.944l57.856 57.856a96 96 0 0 0 135.744 0l31.36-31.36a96 96 0 0 0 0-135.744l-57.28-57.28a183.36 183.36 0 0 1 193.472 225.024l-4.096 17.408L812.992 762.24a81.664 81.664 0 0 1 0 115.392zM944.704 423.36L581.44 60.032a96.128 96.128 0 0 0-135.808 0L82.496 423.296A96 96 0 0 0 97.6 571.392V896c0 52.928 43.072 96 96 96h320a32 32 0 1 0 0-64h-320a32 32 0 0 1-32-32V551.744a32 32 0 0 0-21.568-30.272 32 32 0 0 1-12.288-52.864l363.2-363.264a32.064 32.064 0 0 1 45.312 0l363.2 363.264c6.016 6.016 9.344 14.08 9.344 22.656a31.808 31.808 0 0 1-21.568 30.208 32 32 0 0 0-21.632 30.272v76.544a32 32 0 1 0 64 0v-56.896c27.008-17.664 43.328-47.808 43.2-80.192a95.36 95.36 0 0 0-28.16-67.84z"/></svg>