<svg class="icon" viewBox="0 0 1024 1024" xmlns="http://www.w3.org/2000/svg" width="32" height="32"><defs><style/></defs><path d="M844.378 640h-32.707a115.23 115.23 0 0 0-12.409-29.937l23.13-23.19a29.033 29.033 0 1 0-41.08-41.02l-23.13 23.13a115.23 115.23 0 0 0-29.998-12.47v-32.707a29.033 29.033 0 1 0-58.066 0v32.708a115.23 115.23 0 0 0-29.937 12.469l-23.19-23.13a29.033 29.033 0 1 0-41.021 41.08l23.13 23.13A115.23 115.23 0 0 0 586.632 640h-32.708a29.033 29.033 0 0 0 0 58.067h32.708c2.77 10.541 6.927 20.6 12.468 29.997l-23.13 23.13a29.033 29.033 0 1 0 41.08 41.08l23.13-23.13c9.337 5.482 19.396 9.638 29.938 12.409v32.708a29.033 29.033 0 1 0 58.066 0v-32.708c10.542-2.71 20.6-6.927 29.998-12.409l23.13 23.13a29.033 29.033 0 1 0 41.08-41.08l-23.13-23.13a119.94 119.94 0 0 0 12.409-29.997h32.707a29.033 29.033 0 1 0 0-58.067zm-145.167 87.1a58.067 58.067 0 1 1 0-116.133 58.067 58.067 0 0 1 0 116.133zm93.485-606.63H231.243c-44.333 0-80.655 36.322-80.655 80.716v416.226c0 44.393 36.322 80.715 80.716 80.715h177.453v87.1H295.755a29.033 29.033 0 1 0 0 58.067H437.73a29.033 29.033 0 0 0 29.033-29.033V669.094A29.033 29.033 0 0 0 437.73 640H249.013a40.478 40.478 0 0 1-40.358-40.358v-47.586H437.79a29.033 29.033 0 1 0 0-58.066H208.655V218.895c.06-22.287 18.07-40.297 40.358-40.358h525.974c22.287.06 40.298 18.071 40.358 40.358v188.777a29.033 29.033 0 1 0 58.067 0V201.126c0-44.334-36.322-80.655-80.716-80.655z"/></svg>