<svg width="20" height="21" xmlns="http://www.w3.org/2000/svg"><path d="M10.098 16.999l-.625.157V15h1.25v2.163l-.625-.164zm0-14.499a.625.625 0 0 1-.625-.625V.625a.625.625 0 0 1 1.25 0v1.25c0 .345-.28.625-.625.625zm3.652 16.875a.617.617 0 0 1-.184-.027l-3.471-1.07-3.614 1.072a.625.625 0 1 1-.356-1.199l3.795-1.126a.639.639 0 0 1 .363.003l3.652 1.126a.624.624 0 0 1-.185 1.221zM18.125 15H1.875A1.877 1.877 0 0 1 0 13.125v-10C0 2.091.841 1.25 1.875 1.25h16.25c1.034 0 1.875.841 1.875 1.875v10A1.877 1.877 0 0 1 18.125 15zM1.875 2.5a.627.627 0 0 0-.625.625v10c0 .344.281.625.625.625h16.25a.627.627 0 0 0 .625-.625v-10a.627.627 0 0 0-.625-.625H1.875zm6.348 8.886a.628.628 0 0 1-.443-.182L3.894 7.318a.625.625 0 0 1 .884-.884l3.445 3.445L11.57 6.53a.625.625 0 0 1 .884 0l3.721 3.722a.625.625 0 0 1-.884.883l-3.28-3.28-3.346 3.348a.623.623 0 0 1-.442.182z"/></svg>