<?xml version="1.0" standalone="no"?><!DOCTYPE svg PUBLIC "-//W3C//DTD SVG 1.1//EN" "http://www.w3.org/Graphics/SVG/1.1/DTD/svg11.dtd"><svg t="1645972581996" class="icon" viewBox="0 0 1024 1024" version="1.1" xmlns="http://www.w3.org/2000/svg" p-id="1832" xmlns:xlink="http://www.w3.org/1999/xlink" width="200" height="200"><defs><style type="text/css"></style></defs><path d="M919.096889 0H104.846222A104.96 104.96 0 0 0 0 104.846222v814.307556C0 976.952889 47.047111 1024 104.846222 1024h814.250667A105.016889 105.016889 0 0 0 1024 919.153778V104.789333A105.016889 105.016889 0 0 0 919.096889 0z m-92.728889 290.986667l-2.218667 1.137777-0.284444 2.503112c-22.300444 153.998222-156.444444 270.222222-311.921778 270.222222-155.420444 0-289.564444-116.224-311.864889-270.222222l-0.341333-2.503112-2.218667-1.137777a48.583111 48.583111 0 0 1-24.689778-41.756445 48.981333 48.981333 0 0 1 98.019556 0c0 14.222222-6.428444 27.477333-18.204444 37.262222l-2.332445 1.763556 0.512 2.844444a263.281778 263.281778 0 0 0 261.12 223.004445 263.452444 263.452444 0 0 0 261.176889-223.004445l0.568889-2.730666-2.275556-1.820445a48.014222 48.014222 0 0 1-18.204444-37.262222 49.038222 49.038222 0 0 1 98.019555 0 48.924444 48.924444 0 0 1-24.860444 41.699556z" fill="#8696AE" p-id="1833"></path></svg>