<svg width="20" height="21" xmlns="http://www.w3.org/2000/svg"><path d="M16.339 1H3.559A2.557 2.557 0 0 0 1 3.556v12.781a2.556 2.556 0 0 0 2.556 2.558h12.781a2.558 2.558 0 0 0 2.558-2.558V3.557A2.558 2.558 0 0 0 16.337 1h.002zm1.28 15.342a1.274 1.274 0 0 1-1.27 1.276H3.562a1.274 1.274 0 0 1-.907-.374 1.268 1.268 0 0 1-.377-.902V3.557c0-.707.575-1.28 1.282-1.28h12.78c.707 0 1.28.572 1.28 1.279v12.786zM15.545 6.75h-5.113a.639.639 0 1 0 0 1.278h5.113a.639.639 0 1 0 0-1.278zm0 5.116h-5.113a.638.638 0 1 0 0 1.277h5.113a.638.638 0 1 0 0-1.277zm-8.95-1.596a2.238 2.238 0 1 0 0 4.473 2.238 2.238 0 0 0 0-4.472v-.001zm.679 2.916a.96.96 0 1 1-1.357-1.357.96.96 0 0 1 1.357 1.357zm.788-7.523L5.957 7.767l-.828-.826a.638.638 0 1 0-.903.903l1.278 1.278c.25.25.654.25.903 0l2.557-2.556a.639.639 0 0 0-.902-.904z"/></svg>