<svg class="icon" viewBox="0 0 1024 1024" xmlns="http://www.w3.org/2000/svg" width="32" height="32"><defs><style/></defs><path d="M360.576 926.656H210.88c-45.632 0-82.752-37.12-82.752-82.816V180.864c0-45.632 37.12-82.752 82.752-82.752h537.408c45.632 0 82.816 37.12 82.816 82.752v193.28a32 32 0 0 1-64 0v-193.28a19.008 19.008 0 0 0-18.816-18.752H210.88a19.008 19.008 0 0 0-18.752 18.752v663.04c0 10.112 8.576 18.752 18.752 18.752h149.76a32 32 0 0 1 0 64z"/><path d="M618.56 324.352H292.352a32 32 0 0 1 0-64H618.56a32 32 0 0 1 0 64zm-43.968 156.8H292.608a32 32 0 0 1 0-64h281.984a32 32 0 0 1 0 64zM482.56 641.024H293.632a32 32 0 0 1 0-64H482.56a32 32 0 0 1 0 64zM453.312 921.92l-3.2-146.624c-5.44-17.408 2.88-35.328 12.992-46.72l263.168-295.36a43.52 43.52 0 0 1 28.352-14.4 42.176 42.176 0 0 1 32 10.368l108.48 96.64a42.88 42.88 0 0 1 2.944 60.352L832 661.12a32 32 0 1 1-48-42.304l52.48-59.52-76.288-67.84-246.4 276.48a60.8 60.8 0 0 1 .32 4.608l1.664 77.824 68.032-7.808a41.663 41.663 0 0 0 3.264-3.456l.256-.256 135.04-148.352a32 32 0 0 1 47.36 43.072l-135.04 148.224c-3.2 3.712-8.256 8.96-13.76 13.44-12.608 10.24-23.744 12.288-32.512 11.2l-135.104 15.552z"/><path d="M803.008 672a31.936 31.936 0 0 1-23.04-9.728l-98.816-102.016a32 32 0 0 1 45.952-44.544l98.88 101.952a32 32 0 0 1-23.04 54.272z"/></svg>