<svg width="20" height="20" xmlns="http://www.w3.org/2000/svg"><path d="M14.373 10.19a.637.637 0 0 0-.561-.612c-.325 0-.7.15-.737.412l-1.436 5.083-.3-.5a7.243 7.243 0 0 0-2.498-2.497l-.35-.175.25-.237a3.959 3.959 0 0 0 1.412-3.01 4.059 4.059 0 0 0-8.117 0 3.971 3.971 0 0 0 1.398 3.01l.312.237-.312.175A6.594 6.594 0 0 0 0 17.308c0 .373.302.674.674.674.375 0 .68-.3.687-.674a5.257 5.257 0 0 1 4.733-4.658 5.32 5.32 0 0 1 4.733 4.658.537.537 0 0 0 .125.337c.068.265.29.463.562.5h.125a.687.687 0 0 0 .599-.437l2.135-7.518zm-8.279 1.124a2.66 2.66 0 1 1 2.71-2.66 2.685 2.685 0 0 1-2.71 2.66zm10.602-7.343H10.74a.587.587 0 0 0-.55.612.6.6 0 0 0 .55.624h5.956a.6.6 0 0 0 .562-.624.587.587 0 0 0-.562-.612zm0 2.96h-2.96a.624.624 0 1 0 0 1.249h2.985a.624.624 0 0 0 0-1.25h-.025z"/><path d="M19.98 4.22A3.472 3.472 0 0 0 16.596.663H4.408A3.484 3.484 0 0 0 1.012 4.22v1.1a.687.687 0 0 0 .686.674.674.674 0 0 0 .675-.674v-1.1a2.135 2.135 0 0 1 2.035-2.222h12.188a2.135 2.135 0 0 1 2.036 2.223V15.76a2.123 2.123 0 0 1-2.036 2.21h-2.71a.674.674 0 1 0 0 1.336h2.71a3.472 3.472 0 0 0 3.384-3.534V4.221z"/></svg>