<svg class="icon" viewBox="0 0 1024 1024" xmlns="http://www.w3.org/2000/svg" width="16" height="16"><defs><style/></defs><path d="M961.728 554.56h-95.68v-63.488h95.68a31.936 31.936 0 1 0 0-63.808H834.112A31.936 31.936 0 0 0 802.24 459.2v227.072a143.36 143.36 0 1 0 63.808 0v-67.84h95.68a31.936 31.936 0 1 0 0-63.872zM913.92 826.112a79.744 79.744 0 1 1-79.744-79.68c43.904 0 79.552 35.456 79.744 79.36v.32z"/><path d="M595.328 895.36h-.832c-198.144 14.656-418.432-2.496-465.152-27.136 11.2-30.144 82.944-75.456 222.208-91.072a32.192 32.192 0 0 0 28.416-32.128v-38.4c0-10.944-5.44-21.12-14.528-27.2a348.48 348.48 0 0 1-122.88-150.848 32.448 32.448 0 0 0-15.104-16c-8.704-4.352-21.632-20.16-34.56-70.4a39.04 39.04 0 0 1 10.56-43.392 32.512 32.512 0 0 0 11.328-23.232c6.848-154.56 92.032-246.848 227.84-246.848 132.992 0 214.4 87.424 223.232 239.808.576 10.24 5.888 19.52 14.4 25.216a31.68 31.68 0 0 1 12.352 38.528c-12.48 48.768-24.96 59.072-29.76 61.184a32.128 32.128 0 0 0-16.96 18.304 350.72 350.72 0 0 1-126.272 167.36 32.448 32.448 0 0 0-14.272 26.944v39.04a32.128 32.128 0 0 0 28.416 32.064c11.264 1.28 28.864 3.968 52.8 8.256a32.32 32.32 0 1 0 10.944-63.68l-22.016-3.776a417.344 417.344 0 0 0 126.08-172.8c28.16-25.344 46.72-59.456 52.8-96.768a97.152 97.152 0 0 0-25.856-98.432C712.96 173.12 604.544 64 442.624 64 275.2 64 164.608 177.152 151.808 359.68a105.6 105.6 0 0 0-20.608 98.752 176.1 176.1 0 0 0 57.088 105.6A422.4 422.4 0 0 0 308.48 717.76C158.72 741.248 64 801.92 64 876.16a47.808 47.808 0 0 0 16.128 35.328c43.072 40.512 211.2 53.44 359.296 53.44a2240 2240 0 0 0 163.584-5.568c2.56-.192 5.12-.64 7.552-1.472l4.48-1.408a32.448 32.448 0 0 0 20.16-40 31.616 31.616 0 0 0-39.68-20.928l-.192-.192z"/></svg>