<svg class="icon" viewBox="0 0 1024 1024" xmlns="http://www.w3.org/2000/svg" width="32" height="32"><defs><style/></defs><path d="M840.832 128h-607.04v60.8h576.64c18.176 0 30.4 12.16 30.4 30.4v632.512h60.8V188.864c0-36.48-24.32-60.864-60.8-60.864zm-220.16 296.832l-218.944 218.88-97.344-97.28c-12.16-12.16-36.48-12.16-48.64 0-6.144 6.08-6.144 30.464 0 42.56l121.6 121.664c6.08 6.08 18.24 6.08 24.32 6.08 6.08 0 18.24 0 24.32-6.08l243.264-243.328a29.44 29.44 0 0 0 0-42.496c-12.16-12.16-36.48-12.16-48.64 0zM736.192 868.8c0 18.176-12.16 30.336-30.4 30.336H219.2c-18.176 0-30.336-12.16-30.336-30.336V321.408c0-18.24 12.16-30.4 30.336-30.4h486.592c18.24 0 30.4 12.16 30.4 30.4V868.8zm0-638.592H188.864c-36.48 0-60.864 24.32-60.864 60.8v608.128c0 36.48 24.32 60.864 60.8 60.864h547.392c36.48 0 60.8-30.4 60.8-60.8V290.944c0-36.48-24.32-60.8-60.8-60.8zm-91.2 547.264H280.064c-18.24 0-30.464 12.16-30.464 30.4s12.16 30.464 30.464 30.464h364.928c18.176 0 30.336-12.16 30.336-30.464 0-18.176-12.16-30.4-30.336-30.4z"/></svg>