<svg width="20" height="21" xmlns="http://www.w3.org/2000/svg"><path d="M18.113 16.41c.897-.82 1.441-1.896 1.441-3.076 0-2.052-1.648-3.794-3.935-4.41-.137-3.29-3.484-5.922-7.595-5.922-4.197 0-7.6 2.744-7.6 6.13 0 1.554.718 2.974 1.9 4.054.37.339-.063 1.264-.595 2.028.9-.248 1.86-.41 2.699-.41.393 0 .76.036 1.082.114a9.247 9.247 0 0 0 3.023.33c.905 1.613 2.918 2.736 5.256 2.736a7.01 7.01 0 0 0 1.907-.26c.245-.06.523-.087.821-.087.637 0 1.365.123 2.048.312-.404-.58-.733-1.282-.452-1.539zM8.024 14.142a8.122 8.122 0 0 1-2.209-.301l-.02-.006-.02-.004a5.726 5.726 0 0 0-1.347-.146c-.286 0-.571.015-.85.042.059-.656-.193-1.088-.498-1.367a4.926 4.926 0 0 1-1.138-1.506 3.966 3.966 0 0 1-.397-1.722c0-1.292.642-2.522 1.809-3.463a6.764 6.764 0 0 1 2.074-1.126 8.02 8.02 0 0 1 2.596-.422c.903 0 1.777.142 2.597.422.78.267 1.478.645 2.074 1.126 1.041.84 1.664 1.91 1.786 3.048a7.214 7.214 0 0 0-.692-.033c-3.184 0-5.765 2.082-5.765 4.65 0 .275.03.545.087.807l-.087.001zm9.333 1.442c-.18.165-.42.469-.462.945a6.672 6.672 0 0 0-.378-.011c-.399 0-.764.04-1.086.118l-.02.005-.02.006a5.887 5.887 0 0 1-1.602.218 5.818 5.818 0 0 1-1.882-.306 4.861 4.861 0 0 1-1.491-.808c-.82-.662-1.272-1.52-1.272-2.417 0-.897.451-1.755 1.272-2.417a4.862 4.862 0 0 1 1.49-.808 5.818 5.818 0 0 1 1.883-.305 5.81 5.81 0 0 1 1.883.305 4.863 4.863 0 0 1 1.49.808c.82.662 1.273 1.52 1.273 2.417 0 .409-.093.809-.275 1.19a3.471 3.471 0 0 1-.803 1.06z"/><path d="M4.69 7.933c.005-.646.41-1.167.908-1.167.501 0 .908.53.908 1.181 0 .653-.406 1.181-.908 1.181-.498 0-.903-.52-.909-1.166v-.029zm4.725 0c.006-.646.41-1.167.908-1.167.502 0 .909.53.909 1.181 0 .653-.407 1.181-.909 1.181-.498 0-.902-.52-.908-1.166v-.029zm2.094 4.537c.006-.497.317-.896.7-.896.387 0 .7.407.7.91 0 .503-.313.91-.7.91-.383 0-.694-.4-.7-.895v-.029zm3.373 0c.006-.497.318-.896.7-.896.387 0 .7.407.7.91 0 .503-.313.91-.7.91-.382 0-.694-.4-.7-.895v-.029z"/></svg>